:FULLY-SPECIFIED
:FORCE-ALL-JOINTS-BE-3DOF
:DEGREES
1427
root -2.08637 13.7129 12.6858 366.626 27.3079 366.476
lfemur 25.5102 -0.256413 -10.2717
ltibia 17.0388 0 0
lfoot -15.8373 34.6662 0
ltoes -23.9259 0 0
rfemur -65.5958 -21.4388 12.2574
rtibia 74.2162 0 0
rfoot -9.2779 10.2319 0
rtoes 4.63327 0 0
lowerback 10.2239 2.02011 -10.1916
upperback -3.34466 1.20921 -0.924497
thorax -9.62067 1.16398 4.51197
lowerneck -0.0238963 -11.6608 -10.5184
upperneck 6.1465 -16.0373 9.59138
head 3.45706 -7.97351 3.8576
lclavicle 1.31155e-14 -2.03116e-14 0
lhumerus -73.6781 -18.028 104.397
lradius 100.841 0 0
lwrist 58.2302 0 0
lhand -9.56618 41.5428 0
lfingers 7.12502 0 0
lthumb 16.4013 -289.131 0
rclavicle 1.31155e-14 -2.03116e-14 0
rhumerus 63.1572 -13.9784 -27.7985
rradius 82.0325 0 0
rwrist 26.8225 0 0
rhand -43.8216 -31.2525 0
rfingers 7.12502 0 0
rthumb -16.6494 -60.5584 0
1428
root -2.09011 13.7113 12.6866 366.642 27.2989 366.478
lfemur 25.4748 -0.246826 -10.2559
ltibia 17.0768 0 0
lfoot -15.8288 34.6774 0
ltoes -23.7229 0 0
rfemur -65.6382 -21.4707 12.2953
rtibia 74.2325 0 0
rfoot -9.28021 10.2797 0
rtoes 4.72646 0 0
lowerback 10.2118 2.01472 -10.1923
upperback -3.35452 1.20284 -0.923967
thorax -9.62361 1.16149 4.51422
lowerneck -0.0334685 -11.6564 -10.5043
upperneck 6.15117 -16.0299 9.57617
head 3.45687 -7.96964 3.85106
lclavicle 1.16229e-14 -2.27041e-14 0
lhumerus -73.6851 -18.0495 104.421
lradius 100.814 0 0
lwrist 58.2359 0 0
lhand -9.54558 41.4543 0
lfingers 7.12502 0 0
lthumb 16.4212 -289.221 0
rclavicle 1.16229e-14 -2.27041e-14 0
rhumerus 63.1367 -13.9822 -27.7912
rradius 82.0457 0 0
rwrist 26.7873 0 0
rhand -43.8157 -31.2509 0
rfingers 7.12502 0 0
rthumb -16.6438 -60.5572 0
1429
root -2.09385 13.7096 12.6875 366.657 27.29 366.479
lfemur 25.4395 -0.23724 -10.24
ltibia 17.1148 0 0
lfoot -15.8202 34.6887 0
ltoes -23.52 0 0
rfemur -65.6805 -21.5026 12.3332
rtibia 74.2489 0 0
rfoot -9.28252 10.3274 0
rtoes 4.81966 0 0
lowerback 10.1998 2.00932 -10.193
upperback -3.36437 1.19648 -0.923438
thorax -9.62655 1.15899 4.51646
lowerneck -0.0430407 -11.652 -10.4902
upperneck 6.15585 -16.0225 9.56096
head 3.45668 -7.96576 3.84452
lclavicle 1.01303e-14 -2.50966e-14 0
lhumerus -73.6921 -18.0711 104.445
lradius 100.788 0 0
lwrist 58.2415 0 0
lhand -9.52497 41.3658 0
lfingers 7.12502 0 0
lthumb 16.441 -289.311 0
rclavicle 1.01303e-14 -2.50966e-14 0
rhumerus 63.1163 -13.9861 -27.7839
rradius 82.059 0 0
rwrist 26.7522 0 0
rhand -43.8098 -31.2493 0
rfingers 7.12502 0 0
rthumb -16.6381 -60.5561 0
1430
root -2.09708 13.709 12.6845 366.691 27.2768 366.523
lfemur 25.346 -0.212482 -10.2693
ltibia 17.2424 0 0
lfoot -15.835 34.7029 0
ltoes -23.6927 0 0
rfemur -65.7497 -21.5514 12.3489
rtibia 74.2604 0 0
rfoot -9.22312 10.3697 0
rtoes 4.78876 0 0
lowerback 10.2298 2.00634 -10.2065
upperback -3.36396 1.18671 -0.923834
thorax -9.64273 1.1558 4.52503
lowerneck -0.0545036 -11.6413 -10.4879
upperneck 6.13678 -16.0048 9.54849
head 3.44983 -7.95706 3.84178
lclavicle 8.66929e-15 -2.37501e-14 0
lhumerus -73.6839 -18.093 104.47
lradius 100.772 0 0
lwrist 58.2446 0 0
lhand -9.54808 41.3106 0
lfingers 7.12502 0 0
lthumb 16.4188 -289.364 0
rclavicle 8.66929e-15 -2.37501e-14 0
rhumerus 63.0921 -13.9857 -27.7618
rradius 82.1199 0 0
rwrist 26.6993 0 0
rhand -43.7495 -31.2176 0
rfingers 7.12502 0 0
rthumb -16.5801 -60.5291 0
1431
root -2.10032 13.7083 12.6816 366.725 27.2636 366.567
lfemur 25.2525 -0.187725 -10.2985
ltibia 17.3699 0 0
lfoot -15.8498 34.7171 0
ltoes -23.8654 0 0
rfemur -65.819 -21.6001 12.3646
rtibia 74.2719 0 0
rfoot -9.16371 10.412 0
rtoes 4.75787 0 0
lowerback 10.2599 2.00336 -10.22
upperback -3.36354 1.17694 -0.924231
thorax -9.65891 1.15261 4.53361
lowerneck -0.0659665 -11.6306 -10.4856
upperneck 6.11771 -15.987 9.53601
head 3.44298 -7.94837 3.83903
lclavicle 7.20828e-15 -2.24035e-14 0
lhumerus -73.6757 -18.1148 104.495
lradius 100.757 0 0
lwrist 58.2478 0 0
lhand -9.57118 41.2554 0
lfingers 7.12502 0 0
lthumb 16.3965 -289.418 0
rclavicle 7.20828e-15 -2.24035e-14 0
rhumerus 63.0679 -13.9853 -27.7397
rradius 82.1808 0 0
rwrist 26.6465 0 0
rhand -43.6893 -31.186 0
rfingers 7.12502 0 0
rthumb -16.522 -60.5021 0
1432
root -2.10355 13.7077 12.6786 366.759 27.2504 366.611
lfemur 25.1591 -0.162967 -10.3278
ltibia 17.4975 0 0
lfoot -15.8646 34.7312 0
ltoes -24.038 0 0
rfemur -65.8882 -21.6489 12.3802
rtibia 74.2834 0 0
rfoot -9.10431 10.4544 0
rtoes 4.72697 0 0
lowerback 10.2899 2.00038 -10.2335
upperback -3.36313 1.16716 -0.924627
thorax -9.67508 1.14942 4.54218
lowerneck -0.0774295 -11.6199 -10.4833
upperneck 6.09864 -15.9693 9.52354
head 3.43614 -7.93967 3.83629
lclavicle 5.74727e-15 -2.1057e-14 0
lhumerus -73.6675 -18.1367 104.52
lradius 100.741 0 0
lwrist 58.2509 0 0
lhand -9.59429 41.2003 0
lfingers 7.12502 0 0
lthumb 16.3743 -289.471 0
rclavicle 5.74727e-15 -2.1057e-14 0
rhumerus 63.0436 -13.9849 -27.7176
rradius 82.2417 0 0
rwrist 26.5936 0 0
rhand -43.629 -31.1543 0
rfingers 7.12502 0 0
rthumb -16.464 -60.4752 0
1433
root -2.10678 13.7071 12.6757 366.793 27.2373 366.656
lfemur 25.0656 -0.13821 -10.3571
ltibia 17.625 0 0
lfoot -15.8793 34.7454 0
ltoes -24.2107 0 0
rfemur -65.9574 -21.6976 12.3959
rtibia 74.295 0 0
rfoot -9.0449 10.4967 0
rtoes 4.69608 0 0
lowerback 10.3199 1.99741 -10.247
upperback -3.36271 1.15739 -0.925024
thorax -9.69126 1.14623 4.55076
lowerneck -0.0888924 -11.6091 -10.481
upperneck 6.07957 -15.9515 9.51106
head 3.42929 -7.93097 3.83354
lclavicle 4.28626e-15 -1.97105e-14 0
lhumerus -73.6593 -18.1585 104.544
lradius 100.725 0 0
lwrist 58.2541 0 0
lhand -9.61739 41.1451 0
lfingers 7.12502 0 0
lthumb 16.352 -289.525 0
rclavicle 4.28626e-15 -1.97105e-14 0
rhumerus 63.0194 -13.9846 -27.6954
rradius 82.3026 0 0
rwrist 26.5407 0 0
rhand -43.5688 -31.1227 0
rfingers 7.12502 0 0
rthumb -16.406 -60.4482 0
1434
root -2.11002 13.7065 12.6727 366.827 27.2241 366.7
lfemur 24.9721 -0.113452 -10.3863
ltibia 17.7526 0 0
lfoot -15.8941 34.7596 0
ltoes -24.3834 0 0
rfemur -66.0267 -21.7464 12.4116
rtibia 74.3065 0 0
rfoot -8.9855 10.539 0
rtoes 4.66518 0 0
lowerback 10.35 1.99443 -10.2605
upperback -3.3623 1.14762 -0.92542
thorax -9.70744 1.14304 4.55933
lowerneck -0.100355 -11.5984 -10.4787
upperneck 6.0605 -15.9338 9.49859
head 3.42244 -7.92228 3.8308
lclavicle 2.82525e-15 -1.83639e-14 0
lhumerus -73.6511 -18.1804 104.569
lradius 100.71 0 0
lwrist 58.2572 0 0
lhand -9.6405 41.0899 0
lfingers 7.12502 0 0
lthumb 16.3298 -289.578 0
rclavicle 2.82525e-15 -1.83639e-14 0
rhumerus 62.9952 -13.9842 -27.6733
rradius 82.3635 0 0
rwrist 26.4878 0 0
rhand -43.5085 -31.091 0
rfingers 7.12502 0 0
rthumb -16.3479 -60.4212 0
1435
root -2.11325 13.7058 12.6697 366.861 27.2109 366.744
lfemur 24.8786 -0.0886946 -10.4156
ltibia 17.8802 0 0
lfoot -15.9089 34.7738 0
ltoes -24.5561 0 0
rfemur -66.0959 -21.7952 12.4273
rtibia 74.318 0 0
rfoot -8.92609 10.5813 0
rtoes 4.63429 0 0
lowerback 10.38 1.99145 -10.2741
upperback -3.36188 1.13785 -0.925817
thorax -9.72362 1.13986 4.5679
lowerneck -0.111818 -11.5877 -10.4765
upperneck 6.04143 -15.916 9.48611
head 3.41559 -7.91358 3.82806
lclavicle 1.36424e-15 -1.70174e-14 0
lhumerus -73.6428 -18.2022 104.594
lradius 100.694 0 0
lwrist 58.2604 0 0
lhand -9.66361 41.0347 0
lfingers 7.12502 0 0
lthumb 16.3075 -289.631 0
rclavicle 1.36424e-15 -1.70174e-14 0
rhumerus 62.971 -13.9838 -27.6512
rradius 82.4245 0 0
rwrist 26.435 0 0
rhand -43.4482 -31.0594 0
rfingers 7.12502 0 0
rthumb -16.2899 -60.3942 0
1436
root -2.11648 13.7052 12.6668 366.895 27.1977 366.788
lfemur 24.7852 -0.063937 -10.4449
ltibia 18.0077 0 0
lfoot -15.9237 34.788 0
ltoes -24.7287 0 0
rfemur -66.1651 -21.8439 12.443
rtibia 74.3295 0 0
rfoot -8.86669 10.6236 0
rtoes 4.60339 0 0
lowerback 10.41 1.98847 -10.2876
upperback -3.36147 1.12808 -0.926213
thorax -9.73979 1.13667 4.57648
lowerneck -0.123281 -11.577 -10.4742
upperneck 6.02236 -15.8983 9.47364
head 3.40874 -7.90488 3.82531
lclavicle -9.67667e-17 -1.56709e-14 0
lhumerus -73.6346 -18.2241 104.619
lradius 100.678 0 0
lwrist 58.2635 0 0
lhand -9.68671 40.9795 0
lfingers 7.12502 0 0
lthumb 16.2853 -289.685 0
rclavicle -9.67667e-17 -1.56709e-14 0
rhumerus 62.9468 -13.9834 -27.6291
rradius 82.4854 0 0
rwrist 26.3821 0 0
rhand -43.388 -31.0277 0
rfingers 7.12502 0 0
rthumb -16.2319 -60.3672 0
1437
root -2.11972 13.7046 12.6638 366.929 27.1845 366.832
lfemur 24.6917 -0.0391794 -10.4741
ltibia 18.1353 0 0
lfoot -15.9385 34.8021 0
ltoes -24.9014 0 0
rfemur -66.2344 -21.8927 12.4586
rtibia 74.341 0 0
rfoot -8.80729 10.666 0
rtoes 4.5725 0 0
lowerback 10.4401 1.98549 -10.3011
upperback -3.36106 1.1183 -0.926609
thorax -9.75597 1.13348 4.58505
lowerneck -0.134744 -11.5663 -10.4719
upperneck 6.00329 -15.8805 9.46116
head 3.4019 -7.89619 3.82257
lclavicle -1.55778e-15 -1.43244e-14 0
lhumerus -73.6264 -18.2459 104.644
lradius 100.663 0 0
lwrist 58.2666 0 0
lhand -9.70982 40.9244 0
lfingers 7.12502 0 0
lthumb 16.263 -289.738 0
rclavicle -1.55778e-15 -1.43244e-14 0
rhumerus 62.9225 -13.983 -27.607
rradius 82.5463 0 0
rwrist 26.3292 0 0
rhand -43.3277 -30.9961 0
rfingers 7.12502 0 0
rthumb -16.1738 -60.3403 0
1438
root -2.12295 13.7039 12.6608 366.963 27.1713 366.876
lfemur 24.5982 -0.0144219 -10.5034
ltibia 18.2629 0 0
lfoot -15.9533 34.8163 0
ltoes -25.0741 0 0
rfemur -66.3036 -21.9415 12.4743
rtibia 74.3525 0 0
rfoot -8.74788 10.7083 0
rtoes 4.5416 0 0
lowerback 10.4701 1.98251 -10.3146
upperback -3.36064 1.10853 -0.927006
thorax -9.77215 1.13029 4.59362
lowerneck -0.146207 -11.5556 -10.4696
upperneck 5.98422 -15.8628 9.44869
head 3.39505 -7.88749 3.81983
lclavicle -3.01879e-15 -1.29778e-14 0
lhumerus -73.6182 -18.2678 104.669
lradius 100.647 0 0
lwrist 58.2698 0 0
lhand -9.73293 40.8692 0
lfingers 7.12502 0 0
lthumb 16.2408 -289.791 0
rclavicle -3.01879e-15 -1.29778e-14 0
rhumerus 62.8983 -13.9826 -27.5849
rradius 82.6072 0 0
rwrist 26.2764 0 0
rhand -43.2674 -30.9644 0
rfingers 7.12502 0 0
rthumb -16.1158 -60.3133 0
1439
root -2.12618 13.7033 12.6579 366.997 27.1581 366.92
lfemur 24.5047 0.0103357 -10.5327
ltibia 18.3904 0 0
lfoot -15.9681 34.8305 0
ltoes -25.2468 0 0
rfemur -66.3728 -21.9902 12.49
rtibia 74.364 0 0
rfoot -8.68848 10.7506 0
rtoes 4.51071 0 0
lowerback 10.5001 1.97953 -10.3281
upperback -3.36023 1.09876 -0.927402
thorax -9.78833 1.1271 4.6022
lowerneck -0.15767 -11.5449 -10.4673
upperneck 5.96515 -15.845 9.43621
head 3.3882 -7.87879 3.81708
lclavicle -4.4798e-15 -1.16313e-14 0
lhumerus -73.61 -18.2896 104.694
lradius 100.631 0 0
lwrist 58.2729 0 0
lhand -9.75603 40.814 0
lfingers 7.12502 0 0
lthumb 16.2185 -289.845 0
rclavicle -4.4798e-15 -1.16313e-14 0
rhumerus 62.8741 -13.9822 -27.5628
rradius 82.6681 0 0
rwrist 26.2235 0 0
rhand -43.2072 -30.9328 0
rfingers 7.12502 0 0
rthumb -16.0578 -60.2863 0
